<svg id="Layer_1" data-name="Layer 1" 
  xmlns="http://www.w3.org/2000/svg" viewBox="0 0 1165.12 1534.07">
  <defs>
    <style>.cls-1,.cls-2,.cls-3,.cls-4,.cls-5,.cls-6{fill:none;}.cls-1{stroke:#000;}.cls-1,.cls-2{stroke-linecap:round;stroke-linejoin:round;}.cls-2,.cls-4,.cls-5,.cls-6{stroke:#231f20;}.cls-3{stroke:#1b1822;}.cls-5{stroke-miterlimit:10;}.cls-6{fill-rule:evenodd;}.cls-7{font-size:19px;fill:#231f20;font-family:OpenSans-Bold, Open Sans;font-weight:700;}</style>
  </defs>
  <title>iOSauto caja</title>
  <g id="frente">
    <path class="cls-1" d="M360.41,89.94l-1-1"/>
    <path class="cls-2" d="M358.62,177.12c.81-15.42,3.31-44.8,10-57,0-14.44,8.69-48.95,26-49,13.26-.34,4.39,4,23.78,4.32l157.44-.08,157.44-.08C752.7,75,743.83,70.67,757.08,71c17.33,0,26.06,34.49,26.07,48.93,6,10.89,7.65,40.8,8.73,56.92"/>
    <path class="cls-3" d="M463.14,119s-.2,27.19-.41,29.28c0,0,11.43,4.19,12.92,4.68s3.6.49,9.1.74,21,1.1,28.59,1.46,39,1.34,49.13,1.46,31.34,0,40.23-.27,27.52-.63,40-1.14,39.81-1.87,39.81-1.87"/>
    <path class="cls-3" d="M696.58,124.86c.12,7.68.28,15.35.34,23"/>
    <path class="cls-3" d="M696.58,119.12c-15.59-1.37-35.75-3.72-51.42-4.86-15-1.09-30.07-1.6-45.16-1.72-29.79-.23-59.9.63-89.63,1.75-17,.64-31.12,1.39-47.22,4.68"/>
    <line class="cls-3" x1="682.52" y1="153.33" x2="696.92" y2="147.89"/>
    <line class="cls-3" x1="696.58" y1="124.86" x2="696.58" y2="119.12"/>
    <line class="cls-2" x1="358.62" y1="177.12" x2="791.88" y2="176.84"/>
  </g>
  <g id="up">
    <path class="cls-2" d="M345.33,575.63c-.23-65.16.18-66.51.15-75.83-.1-29.68,6.07-132.74,6.07-132.74s-1.46-9,1-22c14-80.71,27.9-106.38,43.77-118.84,31.06-20.28,89.42-43.4,186.86-43.74s156,22.38,187.17,42.43c16,12.35,30,37.92,44.6,118.53,2.55,13,1.15,22,1.15,22s6.89,103,7,132.69c0,9.25.94,18.52,1.16,82.93"/>
    <path class="cls-1" d="M386.71,266.49c-2.85-1.4-3.41-5.14-1.43-9,3.33-6.48,10.08-25.6,72.26-45.69,18-5.41,41.41-11.82,60.69-15.88,5.81-1.22,7.34,2.51,5.57,8.35"/>
    <path class="cls-1" d="M780.24,265.11c2.84-1.42,3.38-5.17,1.37-9-3.38-6.46-10.26-25.53-72.57-45.19-18.08-5.28-41.49-11.53-60.8-15.46-5.81-1.18-7.32,2.57-5.52,8.39"/>
    <path class="cls-1" d="M830.21,1197.8s-17.61,36.06-19,43.51c-5.92,30.84-16.93,88-22.36,104.6s-15.22,20.17-26.18,23-81.05,19.08-175.24,19.41S423,1372.81,412,1370.1s-20.79-6.25-26.34-22.79-17-73.64-23.09-104.44c-1.48-7.44-20.36-49.22-20.36-49.22"/>
    <path class="cls-1" d="M428.91,731.17c.37,36.3,14.81,334.58,16.6,358.14"/>
    <path class="cls-1" d="M739.71,728.77c-.12,36.3-10.91,336-12.54,359.56"/>
    <path class="cls-1" d="M386.69,266.45c1.93,1.87,11.38,2.15,18.91-2.77a274,274,0,0,1,57-28.09"/>
    <path class="cls-1" d="M462.6,235.6a323.92,323.92,0,0,1,54.74-14.33,137,137,0,0,0,6.45-17"/>
    <path class="cls-1" d="M780.59,264.19c.48,2.57-10.61,3.82-19.26-1.74a286.38,286.38,0,0,0-57.55-27.82"/>
    <path class="cls-1" d="M703.63,234.58a324.13,324.13,0,0,0-54.34-13.77,134.52,134.52,0,0,1-6.57-17"/>
    <path class="cls-1" d="M584.26,492.28c100-.35,176.77,14.59,195.4,66.64,5.12,16.16,9.95,36.21-11.26,97.38-20.63,57.58-27.12,73.78-27.12,73.78S679.2,707.14,585,707.47s-156.1,23.69-156.1,23.69-6.6-16.15-27.64-73.59c-21.63-61-16.94-81.11-11.94-97.3C407.6,508.1,484.28,492.63,584.26,492.28Z"/>
    <path class="cls-1" d="M586.34,1087.68c56.86-.2,117.31-2,129.58-2.08s15.86,5.8,18.79,14.24,22.21,70.16,24.23,91-9.6,29.3-15.07,33.55-53.55,35.3-156.93,35.66-151.66-30.36-157.17-34.57-17.17-12.63-15.31-33.44,20.71-82.67,23.6-91.13,6.41-14.33,18.69-14.38S529.48,1087.87,586.34,1087.68Z"/>
    <path class="cls-4" d="M601.16,503.3a5.71,5.71,0,0,1-4.77.78,5.76,5.76,0,0,1,3.09-11.1,5.71,5.71,0,0,1,3.45,2.72c1.84.52,25.19,7.34,25.19,7.34,4.61,1.3,24.16,11.23,26.2,11.71A337.59,337.59,0,0,1,687.17,524c11.56,4,31.17,14,39,18.08,2.15,1.12,19.2,9.48,25.88,13.77,2.15.6,1.09,4-1.59,2.87-40.57-15-74.55-28.54-110.91-39.8-2.95-5.33,16.69.7,26.6,3.16-21.23-7-29.57-10.32-40-13.26l-.32-2.28Z"/>
    <path class="cls-4" d="M464.43,515.44a5.76,5.76,0,1,1-.68-7.77c1.91-.09,26.21-1,26.21-1,4.78-.22,26.44,3,28.53,2.84a337,337,0,0,1,34.07-1.6c12.22.15,33.95,3.43,42.7,4.84,2.39.38,21.19,2.94,28.87,4.9,2.22-.1,2.27,3.41-.61,3.23-43.21-1.47-79.69-3.56-117.72-2.76-5.87-2.61,16.06-4.6,26.24-5.4-22.33.08-31.29-.46-42.11,0l-1.53,1.53Z"/>
    <path class="cls-4" d="M666.19,522.07c14.42,4.06,38.6,13.53,58.26,22.58l1.76-2.58"/>
    <path class="cls-4" d="M532,512.73c15-.7,40.87.66,62.35,3l.87-3"/>
  </g>
  <g id="auto_derecha" data-name="auto derecha" style="color:red">
    <path class="cls-5" d="M313.06,511.63l96.88,205.63c17.39,41.3,23.89,106.32,24.16,166.15"/>
    <path class="cls-2" d="M434.1,883.41c.48,107.35-4.83,145.35-24.73,196.85,0,0-5.5,4.44-12.07,15.5s-60.23,101.78-62.41,107.3-1,19.87,1.25,33.1c-5.38,10.55-8.64,72.35-18.62,131.27-1.49,8.77-4.28,14.2-21.54,16a28.13,28.13,0,0,1-26.48.12L243,1384.77s-9.63,12.89-26.4,16.87c-15,4.19-32-1-40.86-7.54s-15.49-9.86-26.52-8.71-36.9-119.17-41.42-142.32c85.15,16,126.83-46.17,126.59-99.14-.26-58.35-47.31-108.85-131.87-101.3,8.63-102.27,12-387.9,2.47-507.18,94.2-.42,133.39-55.33,133.14-112S186.52,310.9,100.79,327.33c2.57-51.13,3.34-89.9,12.33-136,12.35-3.07.08.88,13.15-3.49,18.48-8.38,40-13.1,55.77-9.94,13.85,2.78,29.87,7,44.37,15.16,6.56,3.68,15.26,13.09,18.09,18.18,36.66,69.34,59.31,222.49,68.56,300.42"/>
    <path class="cls-1" d="M434.58,884.94l-112.9-28.41c-33.25-8.69-88.18-15.66-210.71-10.69"/>
    <path class="cls-1" d="M279.18,1385.73c-13,.06-34.06.14-34-3.87-.3-67.19-5-82.55,9.88-82.62,25.34-.11,50.77,34.34,58.68,77.78a2,2,0,0,0,.21,1.07C303.3,1381.69,291.77,1385.67,279.18,1385.73Z"/>
    <path class="cls-1" d="M278,775.94c1.57-.19,2.79,2,3.36,5.43,1,6.05,2.41,15.63,3.44,34.8.63,11.88,1.32,28.11-3.64,28.55-3.65.32-5.11-12.48-5.89-20.57,1-1.62,1.52-3,1.38-7.46-.18-5.69-.52-16.93-.8-22.39a40.64,40.64,0,0,0-.74-6.19C274.89,779.84,276.15,776.17,278,775.94Z"/>
    <path class="cls-1" d="M211.52,263.39l.6.13c5.84,1.11,27.57.92,25.82-10.65s-8-36-13.66-47.89A91.18,91.18,0,0,0,211,199.16a35.12,35.12,0,0,0-3.44-1"/>
    <path class="cls-1" d="M209.8,263c-8.89-2.34-12.21-5.42-12.42-14.4-.18-7.6,1.09-31.15,3.14-45.81.62-4.43,4.18-5.29,8.46-4.24"/>
    <path class="cls-1" d="M210.81,263.22l-1-.26"/>
    <path class="cls-1" d="M212.11,263.52l-1.3-.31"/>
    <path class="cls-1" d="M366.76,1075c-6.69,7-14.73,16.31-18,19.47-2,1.92-5.05,2.8-8.15,2.81a14.55,14.55,0,0,1-5.05-.87,11.87,11.87,0,0,1-7.89-9.84c-.35-2.42-.76-10-1.27-19.52l-.32-5.94"/>
    <path class="cls-1" d="M326.11,1061.09c-2.42-44.53-6.5-126.79-8.15-176.39l94.79,15.79c0,.38,0,.65,0,.65s-.2,16.83-.2,16.83c-.49,47.12-.88,84.33-18.81,119.64-6.27,12.34-17.48,26.26-27,37.38"/>
    <path class="cls-1" d="M338.62,645.36c3.42,5.17,10.87,16.39,10.87,16.39,15.64,23.75,37.06,56.28,43.75,73.88,8.16,21.45,17.67,55.11,19.31,125.61l-96.4-32.08V829l-1.91-53.67c-1.34-39-2.71-80.07-4.43-117.4"/>
    <path class="cls-1" d="M338,644.46h0l.6.9"/>
    <path class="cls-2" d="M312.61,613a52.94,52.94,0,0,0,9.67,9.64A40.86,40.86,0,0,1,338.48,648c2.1,10.46-17.55,14.62-28.71,9.54"/>
    <path class="cls-2" d="M311.31,611.33l1.31,1.68"/>
    <path class="cls-2" d="M302.68,615.86l0-.37"/>
    <path class="cls-2" d="M309.77,657.5a14,14,0,0,1-5.15-3.8c-.07-1.48-.34-9.49-.41-10.95-.5-10.71-1.06-20.09-1.57-27.61"/>
    <path class="cls-1" d="M302.61,614.78c-.6-8.57-1.19-15.66-1.73-22.63a73,73,0,0,0,10.43,19.18"/>
    <path class="cls-1" d="M282.87,1017.4c1.57-.19,2.79,2,3.36,5.43,1,6.05,2.41,15.63,3.44,34.8.63,11.88,1.32,28.11-3.64,28.55-3.65.32-5.11-12.48-5.89-20.57,1-1.62,1.52-3,1.38-7.46-.18-5.69-.52-16.93-.8-22.39a40.64,40.64,0,0,0-.74-6.19C279.72,1021.29,281,1017.62,282.87,1017.4Z"/>
  </g>
  <g id="auto_derecha-2" data-name="auto derecha">
    <path class="cls-5" d="M857.41,513.7,760.53,719.33c-17.39,41.3-23.89,106.32-24.16,166.15"/>
    <path class="cls-2" d="M736.37,885.48c-.48,107.35,4.83,145.35,24.73,196.85,0,0,5.5,4.44,12.07,15.5s60.23,101.78,62.41,107.3,1,19.87-1.25,33.1c5.38,10.55,8.64,72.35,18.62,131.27,1.49,8.77,4.28,14.2,21.54,16a28.13,28.13,0,0,0,26.48.12l26.47,1.22s9.63,12.89,26.4,16.87c15,4.19,32-1,40.86-7.54s15.49-9.86,26.52-8.71,36.9-119.17,41.42-142.32c-85.15,16-126.83-46.17-126.59-99.14.26-58.35,47.31-108.85,131.87-101.3-8.63-102.27-12-387.9-2.47-507.18-94.2-.42-133.39-55.33-133.14-112S983.95,313,1069.68,329.4c-2.57-51.13-3.34-89.9-12.33-136-12.35-3.07-.08.88-13.15-3.49-18.48-8.38-40-13.1-55.77-9.94-13.85,2.78-29.87,7-44.37,15.16-6.56,3.68-15.26,13.09-18.09,18.18-36.66,69.34-59.31,222.49-68.56,300.42"/>
    <path class="cls-1" d="M735.89,887l112.9-28.41c33.25-8.69,88.18-15.66,210.71-10.69"/>
    <path class="cls-1" d="M891.29,1387.8c13,.06,34.06.14,34-3.87.3-67.19,5-82.55-9.88-82.62-25.34-.11-50.77,34.34-58.68,77.78a2,2,0,0,1-.21,1.07C867.17,1383.76,878.7,1387.74,891.29,1387.8Z"/>
    <path class="cls-1" d="M892.42,778c-1.57-.19-2.79,2-3.36,5.43-1,6.05-2.41,15.63-3.44,34.8-.63,11.88-1.32,28.11,3.64,28.55,3.65.32,5.11-12.48,5.89-20.57-1-1.62-1.52-3-1.38-7.46.18-5.69.52-16.93.8-22.39a40.64,40.64,0,0,1,.74-6.19C895.57,781.91,894.32,778.24,892.42,778Z"/>
    <path class="cls-1" d="M959,265.46l-.6.13c-5.84,1.11-27.57.92-25.82-10.65s8-36,13.66-47.89a91.18,91.18,0,0,1,13.23-5.82,35.12,35.12,0,0,1,3.44-1"/>
    <path class="cls-1" d="M960.66,265c8.89-2.34,12.21-5.42,12.42-14.4.18-7.6-1.09-31.15-3.14-45.81-.62-4.43-4.18-5.29-8.46-4.24"/>
    <path class="cls-1" d="M959.65,265.29l1-.26"/>
    <path class="cls-1" d="M958.36,265.6l1.3-.31"/>
    <path class="cls-1" d="M803.71,1077.05c6.69,7,14.73,16.31,18,19.47,2,1.92,5.05,2.8,8.15,2.81a14.55,14.55,0,0,0,5.05-.87,11.87,11.87,0,0,0,7.89-9.84c.35-2.42.76-10,1.27-19.52l.32-5.94"/>
    <path class="cls-1" d="M844.36,1063.16c2.42-44.53,6.5-126.79,8.15-176.39l-94.79,15.79c0,.38,0,.65,0,.65s.2,16.83.2,16.83c.49,47.12.88,84.33,18.81,119.64,6.27,12.34,17.48,26.26,27,37.38"/>
    <path class="cls-1" d="M831.85,647.43c-3.42,5.17-10.87,16.39-10.87,16.39-15.64,23.75-37.06,56.28-43.75,73.88-8.16,21.45-17.67,55.11-19.31,125.61l96.4-32.08v-.19l1.91-53.67c1.34-39,2.71-80.07,4.43-117.4"/>
    <path class="cls-1" d="M832.45,646.53h0l-.6.9"/>
    <path class="cls-2" d="M857.86,615.08a52.94,52.94,0,0,1-9.67,9.64A40.86,40.86,0,0,0,832,650c-2.1,10.46,17.55,14.62,28.71,9.54"/>
    <path class="cls-2" d="M859.16,613.4l-1.31,1.68"/>
    <path class="cls-2" d="M867.79,617.94l0-.37"/>
    <path class="cls-2" d="M860.7,659.57a14,14,0,0,0,5.15-3.8c.07-1.48.34-9.49.41-10.95.5-10.71,1.06-20.09,1.57-27.61"/>
    <path class="cls-1" d="M867.86,616.86c.6-8.57,1.19-15.66,1.73-22.63a73,73,0,0,1-10.43,19.18"/>
    <path class="cls-1" d="M887.6,1019.47c-1.57-.19-2.79,2-3.36,5.43-1,6.05-2.41,15.63-3.44,34.8-.63,11.88-1.32,28.11,3.64,28.55,3.65.32,5.11-12.48,5.89-20.57-1-1.62-1.52-3-1.38-7.46.18-5.69.52-16.93.8-22.39a40.64,40.64,0,0,1,.74-6.19C890.75,1023.36,889.5,1019.7,887.6,1019.47Z"/>
    <path id="_Compound_Path_" data-name="&lt;Compound Path&gt;" class="cls-6" d="M1038.23,341.89a87.87,87.87,0,1,1-87.87,87.87,87.87,87.87,0,0,1,87.87-87.87Z"/>
    <path id="_Compound_Path_2" data-name="&lt;Compound Path&gt;" class="cls-6" d="M131.23,337.89a87.87,87.87,0,1,1-87.87,87.87,87.87,87.87,0,0,1,87.87-87.87Z"/>
    <ellipse class="cls-4" cx="1038.15" cy="428.34" rx="56.56" ry="55.71"/>
    <path class="cls-6" d="M75.09,424.34c0,30.77,25.32,55.71,56.56,55.71s56.56-24.94,56.56-55.71-25.32-55.71-56.56-55.71C97.75,368.63,75.09,393.57,75.09,424.34Z"/>
  </g>
  <path class="cls-2" d="M383.14,1404.49c.07,1.18.69-2.14.69-1.19-2,5.57,5.15,34.1,7.14,38.28,0,9.74,4.52,31.69,8.68,39.36,0,11.14,11.68,16.07,21.66,15.91,4.16-7.65,14-12.39,25-12,4.87-13.07,7.49-14.21,21.81-14.21,12.53,0,16.11.88,20.07,9.85,2.33,5.28,6.17,4.82,13.88,4.82,1.81-.19,39.36-.25,83.61-.27l139.37.09c11.08-.35,20.88,4.11,25,11.76,10,.15,21.66-4.77,21.66-15.91,4.16-7.66,8.68-29.62,8.68-39.36,2-4.18,9.13-32.71,7.14-38.28,0-.74,0,.88,0,0"/>
  <path class="cls-2" d="M787.61,1402.79c-12.75-5.35-28.55-12.66-35.18-12.66H419c-6.63,0-22.43,7.31-35.18,12.66"/>
  <path class="cls-2" d="M771.79,1480.94c-8.59-9.6-14.73-16.83-33.33-16.83-18.79,0-38.55.09-61.45.09-12.9,0-17.21-5.19-34.72-5H529.15c-17.51-.16-21.81,5-34.72,5-22.9,0-42.65-.09-61.45-.09-18.61,0-24.75,7.23-33.33,16.83"/>
  <path class="cls-2" d="M529.85,1438.92a2.43,2.43,0,0,0,2.44,2.42H653.07a2.43,2.43,0,0,0,2.44-2.42v-23.59a2.43,2.43,0,0,0-2.44-2.42H532.29a2.43,2.43,0,0,0-2.44,2.42Z"/>
  <path id="_Path_" data-name="&lt;Path&gt;" class="cls-6" d="M1129.6,1149.24a87.87,87.87,0,1,1-87.87-87.87h0"/>
  <path id="_Path_2" data-name="&lt;Path&gt;" class="cls-6" d="M1041.73,1061.37a87.87,87.87,0,0,1,87.87,87.87"/>
  <path class="cls-6" d="M1041.66,1092.11c-31.23,0-56.56,24.94-56.56,55.71s25.32,55.71,56.56,55.71,56.56-24.94,56.56-55.71"/>
  <path class="cls-6" d="M1098.21,1147.82c0-30.77-25.32-55.71-56.56-55.71"/>
  <path id="_Path_3" data-name="&lt;Path&gt;" class="cls-6" d="M219,1143.79a87.87,87.87,0,1,1-87.87-87.87h0"/>
  <path id="_Path_4" data-name="&lt;Path&gt;" class="cls-6" d="M131.16,1055.92A87.87,87.87,0,0,1,219,1143.79"/>
  <path class="cls-6" d="M131.08,1086.66c-31.23,0-56.56,24.94-56.56,55.71s25.32,55.71,56.56,55.71,56.56-24.94,56.56-55.71"/>
  <path class="cls-6" d="M187.64,1142.37c0-30.77-25.32-55.71-56.56-55.71"/>
  <text class="cls-7" transform="translate(546.36 1432.98)">IguanaFix</text>
</svg>