<?xml version="1.0" encoding="iso-8859-1"?>
<!-- Generator: Adobe Illustrator 18.1.1, SVG Export Plug-In . SVG Version: 6.00 Build 0)  -->
<svg version="1.1" id="Capa_1" xmlns="http://www.w3.org/2000/svg" xmlns:xlink="http://www.w3.org/1999/xlink" x="0px" y="0px"
	 viewBox="0 0 501 501" style="enable-background:new 0 0 501 501;" xml:space="preserve">
<g>
	<g>
		<path style="fill:#010002;" d="M488,255L283,91c-8-6-15-19.667-21-41c-4-14-13-25.833-27-35.5S206.333,0,191,0
			c-12,0-24,4.167-36,12.5S134.333,30,129,40h62l24,28l-24,34h-59c4,11.333,11.833,20.5,23.5,27.5s25.167,8.833,40.5,5.5
			c0.667,0,5.834-0.5,15.5-1.5c9.667-1,17-1.667,22-2s11.167-0.167,18.5,0.5c4.667,1.333,8.167,2.5,10.5,3.5
			c2.337,1,4.171,2.167,5.5,3.5c1.333,1.333,4.5,4.333,9.5,9s10.833,9.667,17.5,15l162,133c10,9.331,20.333,7.664,31-5
			c4.667-4.667,7-10.667,7-18S492.667,259.667,488,255z"/>
		<path style="fill:#010002;" d="M356,317l-63-110c-4.669-8.667-9.336-13-14-13H102c-4,0-8.667,4.333-14,13L27,317h-2
			c-12.667,0-19,4.667-19,14v94c0,10,6.333,15,19,15h22v33c0,8,2.333,14.667,7,20s10.667,8,18,8h10c7.333,0,13.667-2.667,19-8
			s8-12,8-20v-33h163v33c0,7.333,2.667,13.833,8,19.5c5.334,5.667,11.668,8.5,19,8.5h10c7.333,0,13.333-2.667,18-8s7-12,7-20v-33h22
			c12.667,0,19-5,19-15v-94C375,321.667,368.667,317,356,317z M75,381c-4.667,4.667-10.333,7-17,7s-12.167-2.333-16.5-7
			S35,370.667,35,364s2.167-12.333,6.5-17s9.833-7,16.5-7s12.333,2.333,17,7s7,10.334,7,17C82,370.667,79.667,376.333,75,381z
			 M77,317l38-80c4-8,8.667-12,14-12h123c5.333,0,10,4,14,12l38,80H77z M340,381c-4.667,4.667-10.334,7-17,7
			c-6.669,0-12.336-2.333-17-7c-4.667-4.667-7-10.333-7-17s2.333-12.333,7-17s10.333-7,17-7s12.333,2.333,17,7s7,10.334,7,17
			C347,370.667,344.667,376.333,340,381z"/>
	</g>
</g>
<g>
</g>
<g>
</g>
<g>
</g>
<g>
</g>
<g>
</g>
<g>
</g>
<g>
</g>
<g>
</g>
<g>
</g>
<g>
</g>
<g>
</g>
<g>
</g>
<g>
</g>
<g>
</g>
<g>
</g>
</svg>
